<svg width="37" height="35" viewBox="0 0 37 35" fill="none" xmlns="http://www.w3.org/2000/svg">
<g clip-path="url(#clip0_12_96)">
<path d="M36.6875 17.4471C36.6875 7.93918 28.628 0.231934 18.6875 0.231934C8.74248 0.234072 0.682983 7.93918 0.682983 17.4492C0.682983 26.0397 7.26648 33.161 15.8705 34.4526V22.4234H11.303V17.4492H15.875V13.6533C15.875 9.33992 18.5637 6.9576 22.6745 6.9576C24.6455 6.9576 26.7042 7.29335 26.7042 7.29335V11.5276H24.434C22.1997 11.5276 21.5022 12.8557 21.5022 14.2179V17.4471H26.4927L25.6962 22.4213H21.5V34.4505C30.104 33.1588 36.6875 26.0375 36.6875 17.4471Z" fill="white"/>
</g>
<defs>
<clipPath id="clip0_12_96">
<rect width="36" height="34.2164" fill="white" transform="translate(0.6875 0.233887)"/>
</clipPath>
</defs>
</svg>
