<svg width="36" height="34" viewBox="0 0 36 34" fill="none" xmlns="http://www.w3.org/2000/svg">
<path d="M32.6573 7.66784C27.3773 -0.00025348 16.5973 -2.27996 8.23727 2.4867C0.0972687 7.25335 -2.54273 17.6156 2.73727 25.2837L3.17727 25.9055L1.41727 32.1228L8.01727 30.4649L8.67727 30.8793C11.5373 32.3301 14.6173 33.1591 17.6973 33.1591C20.9973 33.1591 24.2973 32.3301 27.1573 30.6721C35.2973 25.6982 37.7173 15.5432 32.6573 7.66784ZM28.0373 23.6258C27.1573 24.8692 26.0573 25.6982 24.5173 25.9055C23.6373 25.9055 22.5373 26.3199 18.1373 24.662C14.3973 23.004 11.3173 20.3098 9.11727 17.2011C7.79727 15.7504 7.13727 13.8852 6.91727 12.02C6.91727 10.362 7.57727 8.91131 8.67727 7.87508C9.11727 7.46059 9.55727 7.25335 9.99727 7.25335H11.0973C11.5373 7.25335 11.9773 7.25335 12.1973 8.08233C12.6373 9.11856 13.7373 11.6055 13.7373 11.8127C13.9573 12.02 13.9573 12.4345 13.7373 12.6417C13.9573 13.0562 13.7373 13.4707 13.5173 13.678C13.2973 13.8852 13.0773 14.2997 12.8573 14.5069C12.4173 14.7142 12.1973 15.1287 12.4173 15.5432C13.2973 16.7866 14.3973 18.0301 15.4973 19.0663C16.8173 20.1026 18.1373 20.9316 19.6773 21.5533C20.1173 21.7605 20.5573 21.7605 20.7773 21.3461C20.9973 20.9316 22.0973 19.8953 22.5373 19.4808C22.9773 19.0663 23.1973 19.0663 23.6373 19.2736L27.1573 20.9316C27.5973 21.1388 28.0373 21.346 28.2573 21.5533C28.4773 22.175 28.4773 23.004 28.0373 23.6258Z" fill="white"/>
</svg>
