<svg width="47" height="30" viewBox="0 0 47 30" fill="none" xmlns="http://www.w3.org/2000/svg">
<path d="M45.4071 4.67679C45.1431 3.77117 44.6255 2.9453 43.9061 2.28183C43.1867 1.61837 42.2908 1.14057 41.3079 0.896266C37.69 1.81861e-07 23.1875 0 23.1875 0C23.1875 0 8.68496 -1.81861e-07 5.06709 0.891498C4.0838 1.13501 3.18737 1.61254 2.46784 2.27613C1.74831 2.93972 1.231 3.76601 0.967871 4.67202C-1.9744e-07 8.00918 0 14.9695 0 14.9695C0 14.9695 -1.9744e-07 21.9299 0.967871 25.2623C1.50098 27.1025 3.07441 28.5518 5.06709 29.0428C8.68496 29.9391 23.1875 29.9391 23.1875 29.9391C23.1875 29.9391 37.69 29.9391 41.3079 29.0428C43.3058 28.5518 44.874 27.1025 45.4071 25.2623C46.375 21.9299 46.375 14.9695 46.375 14.9695C46.375 14.9695 46.375 8.00918 45.4071 4.67679ZM18.5811 21.3578V8.58127L30.5889 14.9219L18.5811 21.3578Z" fill="white"/>
</svg>
