<svg width="22" height="22" viewBox="0 0 22 22" fill="none" xmlns="http://www.w3.org/2000/svg">
<g clip-path="url(#clip0_12_60)">
<path fill-rule="evenodd" clip-rule="evenodd" d="M15.9638 13.1835C15.6906 13.047 14.3513 12.3888 14.102 12.2971C13.8527 12.2064 13.6712 12.1615 13.4888 12.4346C13.3073 12.706 12.7857 13.3201 12.6271 13.5016C12.4676 13.684 12.309 13.706 12.0367 13.5704C11.7645 13.4329 10.8863 13.146 9.84592 12.2183C9.0365 11.496 8.48925 10.604 8.33067 10.3309C8.17208 10.0586 8.31325 9.91104 8.44983 9.77537C8.57267 9.65345 8.72208 9.45729 8.85867 9.2987C8.99525 9.1392 9.04017 9.02554 9.13092 8.84312C9.22258 8.66162 9.17675 8.50304 9.108 8.36645C9.04017 8.22987 8.49567 6.88879 8.26833 6.34337C8.04742 5.81262 7.82283 5.88504 7.656 5.87587C7.4965 5.86854 7.315 5.8667 7.1335 5.8667C6.952 5.8667 6.65683 5.93454 6.4075 6.2077C6.15725 6.47995 5.45417 7.13904 5.45417 8.48012C5.45417 9.82029 6.4295 11.1155 6.56608 11.298C6.70267 11.4795 8.4865 14.2313 11.2191 15.411C11.8699 15.6915 12.3768 15.8593 12.7719 15.984C13.4246 16.192 14.0186 16.1627 14.4879 16.0921C15.0104 16.0142 16.0994 15.433 16.3268 14.7969C16.5532 14.1607 16.5532 13.6153 16.4853 13.5016C16.4175 13.388 16.236 13.3201 15.9628 13.1835H15.9638ZM10.9936 19.9696H10.9899C9.36689 19.9699 7.77367 19.5336 6.37725 18.7065L6.04725 18.5103L2.61708 19.4105L3.53283 16.0665L3.31742 15.7236C2.41004 14.2793 1.92985 12.6077 1.93233 10.902C1.93417 5.90612 5.99867 1.84162 10.9972 1.84162C13.4172 1.84162 15.6924 2.78579 17.4029 4.49812C18.2466 5.33832 18.9153 6.33747 19.3703 7.43778C19.8254 8.53808 20.0577 9.71769 20.0539 10.9084C20.0521 15.9042 15.9876 19.9696 10.9936 19.9696ZM18.7046 3.19737C17.6946 2.18072 16.4929 1.37461 15.1691 0.825771C13.8453 0.276929 12.4257 -0.00373656 10.9927 3.75628e-05C4.98483 3.75628e-05 0.0935 4.89045 0.0916667 10.901C0.0888828 12.8139 0.590677 14.6936 1.54642 16.3506L0 22L5.77867 20.4839C7.37722 21.3548 9.16859 21.8112 10.989 21.8112H10.9936C17.0014 21.8112 21.8927 16.9208 21.8946 10.9093C21.899 9.47679 21.6194 8.05763 21.0718 6.7339C20.5243 5.41017 19.7197 4.20815 18.7046 3.19737Z" fill="white"/>
</g>
<defs>
<clipPath id="clip0_12_60">
<rect width="22" height="22" fill="white"/>
</clipPath>
</defs>
</svg>
