<svg width="48" height="48" viewBox="0 0 48 48" fill="none" xmlns="http://www.w3.org/2000/svg">
<path fill-rule="evenodd" clip-rule="evenodd" d="M34 16C34 21.523 29.523 26 24 26C18.477 26 14 21.523 14 16C14 10.477 18.477 6 24 6C29.523 6 34 10.477 34 16ZM32 16C32 18.1217 31.1571 20.1566 29.6569 21.6569C28.1566 23.1571 26.1217 24 24 24C21.8783 24 19.8434 23.1571 18.3431 21.6569C16.8429 20.1566 16 18.1217 16 16C16 13.8783 16.8429 11.8434 18.3431 10.3431C19.8434 8.84285 21.8783 8 24 8C26.1217 8 28.1566 8.84285 29.6569 10.3431C31.1571 11.8434 32 13.8783 32 16V16ZM17.914 28.855L17.925 28.877L18 29.024H29.749C29.978 28.59 30.497 27.898 31 28.013C32.13 28.27 33.268 28.628 34.361 29.069L34.394 29.053L34.405 29.075L34.413 29.09C38.528 30.762 42 33.596 42 36.57V42H6V36.57C6 32.795 11.596 29.243 17 28.013C17.441 27.913 17.703 28.433 17.914 28.855V28.855ZM32.704 30.583C32.275 30.4328 31.8411 30.2971 31.403 30.176L30.957 31.024H16.793L16.379 30.237L16.019 30.345C16.012 30.411 16.006 30.485 16.003 30.569C15.99 30.914 16.016 31.323 16.073 31.739C16.1315 32.1729 16.2251 32.6013 16.353 33.02C17.0555 33.1032 17.7059 33.432 18.1895 33.9483C18.6731 34.4645 18.9587 35.1351 18.9959 35.8415C19.0331 36.5479 18.8194 37.2447 18.3927 37.8089C17.966 38.3731 17.3537 38.7683 16.6638 38.9248C15.974 39.0813 15.251 38.989 14.6226 38.6642C13.9942 38.3394 13.5008 37.803 13.2295 37.1498C12.9582 36.4965 12.9264 35.7683 13.1399 35.0939C13.3533 34.4195 13.7982 33.8422 14.396 33.464L14.388 33.436C14.2547 32.9685 14.1555 32.4919 14.091 32.01C14.0486 31.7021 14.0205 31.3925 14.007 31.082C12.771 31.61 11.618 32.248 10.652 32.952C8.73 34.356 8 35.668 8 36.57V40H40V36.57C40 35.667 39.27 34.355 37.348 32.953C36.5099 32.3504 35.6174 31.8275 34.682 31.391C34.6413 31.933 34.5584 32.4709 34.434 33H35C35.1857 33.0001 35.3676 33.0519 35.5255 33.1496C35.6834 33.2472 35.811 33.3869 35.894 33.553L36.894 35.553C36.964 35.692 37 35.845 37 36V38C37 38.2652 36.8946 38.5196 36.7071 38.7071C36.5196 38.8946 36.2652 39 36 39H34V37H35V36.236L34.382 35H31.618L31 36.236V37H32V39H30C29.7348 39 29.4804 38.8946 29.2929 38.7071C29.1054 38.5196 29 38.2652 29 38V36C29 35.845 29.036 35.692 29.106 35.553L30.106 33.553C30.189 33.3869 30.3166 33.2472 30.4745 33.1496C30.6324 33.0519 30.8143 33.0001 31 33H32.362C32.374 32.96 32.387 32.92 32.399 32.876C32.493 32.555 32.577 32.156 32.634 31.74C32.69 31.328 32.716 30.925 32.704 30.583V30.583ZM17 36C17 36.574 16.538 37.015 16 37.015C15.462 37.015 15 36.575 15 36C15 35.426 15.462 34.985 16 34.985C16.538 34.985 17 35.425 17 36Z" fill="#727272"/>
</svg>
