<svg width="48" height="48" viewBox="0 0 48 48" fill="none" xmlns="http://www.w3.org/2000/svg">
<mask id="mask0_212_4" style="mask-type:alpha" maskUnits="userSpaceOnUse" x="2" y="2" width="44" height="44">
<path d="M39 14C41.7614 14 44 11.7614 44 9C44 6.23858 41.7614 4 39 4C36.2386 4 34 6.23858 34 9C34 11.7614 36.2386 14 39 14Z" fill="#555555" stroke="white" stroke-width="4" stroke-linecap="round" stroke-linejoin="round"/>
<path d="M9 44C11.7614 44 14 41.7614 14 39C14 36.2386 11.7614 34 9 34C6.23858 34 4 36.2386 4 39C4 41.7614 6.23858 44 9 44Z" fill="#555555" stroke="white" stroke-width="4" stroke-linecap="round" stroke-linejoin="round"/>
<path d="M4 4H14V14H4V4ZM34 34H44V44H34V34Z" fill="#555555" stroke="white" stroke-width="4" stroke-linecap="round" stroke-linejoin="round"/>
<path d="M39 34V14M34 9H14H34ZM34 39H14H34ZM9 34V14V34Z" stroke="white" stroke-width="4" stroke-linecap="round" stroke-linejoin="round"/>
</mask>
<g mask="url(#mask0_212_4)">
<path d="M0 0H48V48H0V0Z" fill="#8A8A8A"/>
</g>
</svg>
