<svg xmlns="http://www.w3.org/2000/svg" viewBox="0 0 438.69 170.44"><defs><style>.cls-1{fill:#25577a;}.cls-2{fill:#91c88d;}</style></defs><g id="Capa_2" data-name="Capa 2"><g id="Capa_1-2" data-name="Capa 1"><path class="cls-1" d="M379.91,140.11h-.24a3.84,3.84,0,0,1-3.58-3.12l-8.94-44.4L357,123.74a4.88,4.88,0,0,1-9,.72l-5.64-10.84a.25.25,0,0,0-.18-.07.32.32,0,0,0-.23.12l-3.29,4.53a2.32,2.32,0,0,1-.21.25,13.23,13.23,0,0,1-9.49,4H301.73a9.44,9.44,0,0,1-9.43-9.43v-30h-30a9.44,9.44,0,0,1-9.43-9.43V48.84a9.44,9.44,0,0,1,9.43-9.44h30v-30A9.44,9.44,0,0,1,301.73,0h24.82A9.44,9.44,0,0,1,336,9.43v30h30a9.44,9.44,0,0,1,9.43,9.44V62.27a2.39,2.39,0,0,1-4.78,0V48.84A4.66,4.66,0,0,0,366,44.18H333.6a2.39,2.39,0,0,1-2.39-2.39V9.43a4.66,4.66,0,0,0-4.66-4.65H301.73a4.66,4.66,0,0,0-4.65,4.65V41.79a2.39,2.39,0,0,1-2.39,2.39H262.33a4.66,4.66,0,0,0-4.65,4.66V73.66a4.65,4.65,0,0,0,4.65,4.65h32.36a2.39,2.39,0,0,1,2.39,2.39v32.36a4.65,4.65,0,0,0,4.65,4.65H329a8.43,8.43,0,0,0,5.94-2.46l3.19-4.39a5.05,5.05,0,0,1,8.29.17,1.64,1.64,0,0,1,.14.22l5.72,11s0,.06.1,0,.07,0,.08-.07L364,86.94a3.55,3.55,0,0,1,3.62-2.5A3.59,3.59,0,0,1,371,87.28L380,132.4l7.5-26.81a4.91,4.91,0,0,1,9.12-.89l.1.22,4.36,11.4a.65.65,0,0,0,.53.42.61.61,0,0,0,.62-.25l2.29-2.89a5.32,5.32,0,0,1,4.2-2h11.83a2.39,2.39,0,1,1,0,4.78H408.76a.56.56,0,0,0-.45.22L406,119.46a5.45,5.45,0,0,1-9.36-1.43l-4.3-11.23s0,0-.1,0-.1,0-.12.1l-8.52,30.46,0,.09A3.83,3.83,0,0,1,379.91,140.11Z"/><path class="cls-2" d="M374.28,170.44a2.07,2.07,0,0,1-1-.26c-1.47-.82-36.31-20.34-51.15-40.12a2.05,2.05,0,0,1,3.28-2.46c13.08,17.45,43.64,35.44,49,38.54,2.67-1.15,13.09-6.39,36.57-26.46,27.38-23.4,23.33-46,23.28-46.21a1.83,1.83,0,0,1,0-.47c0-.8.36-19.81-20-27.76S375.76,78.1,375.58,78.31A2.07,2.07,0,0,1,374,79a2.09,2.09,0,0,1-1.56-.74c-15.57-18.92-33.79-14.36-34-14.32l-.12,0c-.13,0-13.51,2.84-20.43,14.4s-2.52,29.85-2.48,30a2,2,0,1,1-4,1c-.2-.81-4.91-20,2.93-33.13,7.7-12.87,21.88-16.05,23.09-16.3,1.46-.37,20-4.6,36.61,13.91,5.21-5.28,22.15-20.12,41.72-12.47a34.46,34.46,0,0,1,22.56,31.46c.46,2.67,3.51,25.82-24.68,49.9-28.77,24.59-38.47,27.47-38.86,27.58A2.08,2.08,0,0,1,374.28,170.44Z"/><path class="cls-1" d="M0,35.5H16.22V57.41H37V35.5H53.26V94H37V71.8H16.22V94H0Z"/><path class="cls-1" d="M60.88,71.63v-.17c0-13.21,9.45-23.66,22.82-23.66,15.64,0,22.83,11.45,22.83,24.75,0,1,0,2.17-.08,3.26H76.18C77.43,80.74,81,83.25,86,83.25c3.76,0,6.77-1.42,10-4.6l8.78,7.28c-4.35,5.52-10.62,9.19-19.66,9.19C70.91,95.12,60.88,85.68,60.88,71.63ZM91.65,67.7c-.59-5-3.51-8.2-7.86-8.2-4.18,0-7,3.26-7.86,8.2Z"/><path class="cls-1" d="M111.05,81.08v-.17c0-9.37,7.11-14.22,17.73-14.22a34.72,34.72,0,0,1,10.87,1.76V67.7c0-4.68-2.93-7.36-9-7.36a31.81,31.81,0,0,0-12.46,2.51L114.9,51.64a45.43,45.43,0,0,1,18.31-3.51c8.11,0,13.63,1.92,17.22,5.52,3.43,3.34,4.85,8,4.85,14.38V94H139.56V89.35A17,17,0,0,1,126.27,95C117.65,95,111.05,90.11,111.05,81.08Zm28.76-3.43V75.56a16.59,16.59,0,0,0-6.18-1.17c-4.6,0-7.28,2.26-7.28,5.6v.17c0,3.09,2.34,4.93,5.6,4.93C136.55,85.09,139.81,82.16,139.81,77.65Z"/><path class="cls-1" d="M163.4,48.8h15.88v9.11c2.6-6.18,6.78-10.2,14.3-9.86V64.77h-1.33c-8.28,0-13,4.77-13,15.22V94H163.4Z"/><path class="cls-1" d="M202,80V61.59h-5.36V48.8H202V37.34h15.88V48.8h10.54V61.59H217.83V76.9c0,3.17,1.42,4.51,4.35,4.51a13.91,13.91,0,0,0,6-1.5V92.37a22.74,22.74,0,0,1-11,2.59C207.63,95,202,90.78,202,80Z"/><path class="cls-1" d="M111,130.14H125.7v4.53H106.42V103.32H111Z"/><path class="cls-1" d="M144.89,125.43H133.64c-1.21,2.87-2.78,6.64-3.77,9.24H125l12.6-31.8h3.32l12.6,31.8h-4.84Zm-9.55-4.26h7.8l-3.85-11.08Z"/><path class="cls-1" d="M167,103.32a7.84,7.84,0,0,1,7.63,5.16c1.25,3.09.85,6.68-2.29,8.92a8.13,8.13,0,0,1,4.89,7.8c0,4.71-3.1,9.47-9.11,9.47H154V103.32Zm-8.56,12.47H167c4.94,0,5-8.17.09-8.17h-8.56Zm0,14.48h9.68c3.05,0,4.58-2.55,4.58-5s-1.53-5-4.58-5h-9.68Z"/><path class="cls-1" d="M181.39,110.6l-1.56-1.13a9.57,9.57,0,0,0,2-5.56V101h2.58v2.21A9.44,9.44,0,0,1,181.39,110.6Z"/><path class="cls-1" d="M204.29,111.39c-.63-2.82-3.68-4-6.41-4-2.11,0-4.44.76-5.7,2.38a4.13,4.13,0,0,0-.76,2.91c.23,3.23,3.77,3.63,7.13,4,4.31.54,9.64,1.66,10.85,6.68a10.74,10.74,0,0,1,.23,2.06c0,6.06-6,9.56-11.66,9.56-4.85,0-10.72-2.87-11.3-8.48l0-.85,4.58-.09,0,.67V126c.32,2.92,3.86,4.44,6.77,4.44,3.37,0,7-1.88,7-5.11a5,5,0,0,0-.13-1.08c-.54-2.37-3.77-2.78-6.91-3.09-4.89-.5-10.63-1.57-11.12-8.12v0a8.48,8.48,0,0,1,1.71-6c2.1-2.73,5.87-4.17,9.5-4.17,4.85,0,9.87,2.51,10.68,8.25Z"/></g></g></svg>