<svg xmlns="http://www.w3.org/2000/svg" viewBox="0 0 228.37 272.48"><defs><style>.cls-1{fill:#fff;}</style></defs><g id="Capa_2" data-name="Capa 2"><g id="Capa_1-2" data-name="Capa 1"><path class="cls-1" d="M148.3,140.11h-.24a3.84,3.84,0,0,1-3.58-3.12l-8.94-44.4L125.4,123.74a4.88,4.88,0,0,1-9,.72l-5.64-10.84a.25.25,0,0,0-.18-.07.32.32,0,0,0-.23.12l-3.29,4.53a2.32,2.32,0,0,1-.21.25,13.23,13.23,0,0,1-9.49,4H70.12a9.44,9.44,0,0,1-9.43-9.43v-30h-30a9.44,9.44,0,0,1-9.43-9.43V48.84a9.44,9.44,0,0,1,9.43-9.44h30v-30A9.44,9.44,0,0,1,70.12,0H94.94a9.44,9.44,0,0,1,9.44,9.43v30h30a9.44,9.44,0,0,1,9.43,9.44V62.27a2.39,2.39,0,1,1-4.78,0V48.84a4.66,4.66,0,0,0-4.65-4.66H102a2.39,2.39,0,0,1-2.39-2.39V9.43a4.66,4.66,0,0,0-4.66-4.65H70.12a4.66,4.66,0,0,0-4.65,4.65V41.79a2.39,2.39,0,0,1-2.39,2.39H30.72a4.66,4.66,0,0,0-4.65,4.66V73.66a4.65,4.65,0,0,0,4.65,4.65H63.08a2.39,2.39,0,0,1,2.39,2.39v32.36a4.65,4.65,0,0,0,4.65,4.65H97.4a8.43,8.43,0,0,0,5.94-2.46l3.19-4.39a5.05,5.05,0,0,1,8.29.17,1.64,1.64,0,0,1,.14.22l5.72,11s0,.06.1,0,.07,0,.08-.07l11.49-35.3a3.55,3.55,0,0,1,3.62-2.5,3.59,3.59,0,0,1,3.37,2.84l9.09,45.12,7.5-26.81a4.91,4.91,0,0,1,9.12-.89l.1.22,4.36,11.4a.65.65,0,0,0,.53.42.61.61,0,0,0,.62-.25L173,113.6a5.32,5.32,0,0,1,4.2-2H189a2.39,2.39,0,1,1,0,4.78H177.15a.56.56,0,0,0-.45.22l-2.29,2.89a5.45,5.45,0,0,1-9.36-1.43l-4.3-11.23s0,0-.1,0-.1,0-.12.1L152,137.34l0,.09A3.83,3.83,0,0,1,148.3,140.11Z"/><path class="cls-1" d="M142.67,170.44a2.07,2.07,0,0,1-1-.26c-1.47-.82-36.31-20.34-51.15-40.12a2,2,0,0,1,3.28-2.46c13.08,17.45,43.64,35.44,49.05,38.54,2.67-1.15,13.09-6.39,36.57-26.46,27.38-23.4,23.33-46,23.28-46.21a1.83,1.83,0,0,1,0-.47c0-.8.36-19.81-20-27.76S144.15,78.1,144,78.31a2.07,2.07,0,0,1-1.58.71,2.09,2.09,0,0,1-1.56-.74C125.26,59.36,107,63.92,106.85,64l-.12,0c-.13,0-13.51,2.84-20.43,14.4s-2.52,29.85-2.48,30a2,2,0,1,1-4,1c-.2-.81-4.91-20,2.93-33.13,7.7-12.87,21.88-16.05,23.09-16.3,1.46-.37,20-4.6,36.61,13.91,5.21-5.28,22.15-20.12,41.72-12.47a34.46,34.46,0,0,1,22.56,31.46c.46,2.67,3.51,25.82-24.68,49.9-28.77,24.59-38.47,27.47-38.86,27.58A2.08,2.08,0,0,1,142.67,170.44Z"/><path class="cls-1" d="M0,173.05H16.22V195H37v-21.9H53.26v58.53H37V209.34H16.22v22.24H0Z"/><path class="cls-1" d="M60.88,209.17V209c0-13.21,9.45-23.66,22.82-23.66,15.64,0,22.83,11.45,22.83,24.75,0,1,0,2.17-.08,3.26H76.18c1.25,4.93,4.85,7.44,9.78,7.44,3.76,0,6.77-1.42,10-4.6l8.78,7.28c-4.35,5.52-10.62,9.19-19.66,9.19C70.91,232.66,60.88,223.22,60.88,209.17Zm30.77-3.93c-.59-5-3.51-8.2-7.86-8.2-4.18,0-7,3.26-7.86,8.2Z"/><path class="cls-1" d="M111.05,218.62v-.17c0-9.37,7.11-14.22,17.73-14.22A34.72,34.72,0,0,1,139.65,206v-.75c0-4.68-2.93-7.36-9-7.36a31.81,31.81,0,0,0-12.46,2.51l-3.26-11.21a45.43,45.43,0,0,1,18.31-3.51c8.11,0,13.63,1.92,17.22,5.52,3.43,3.34,4.85,8,4.85,14.38v26H139.56V226.9a17.08,17.08,0,0,1-13.29,5.68C117.65,232.58,111.05,227.65,111.05,218.62Zm28.76-3.43V213.1a16.59,16.59,0,0,0-6.18-1.17c-4.6,0-7.28,2.26-7.28,5.6v.17c0,3.09,2.34,4.93,5.6,4.93C136.55,222.63,139.81,219.7,139.81,215.19Z"/><path class="cls-1" d="M163.4,186.34h15.88v9.11c2.6-6.18,6.78-10.2,14.3-9.86v16.72h-1.33c-8.28,0-13,4.77-13,15.22v14.05H163.4Z"/><path class="cls-1" d="M202,217.53v-18.4h-5.36V186.34H202V174.88h15.88v11.46h10.54v12.79H217.83v15.31c0,3.17,1.42,4.51,4.35,4.51a13.91,13.91,0,0,0,6-1.5v12.46a22.74,22.74,0,0,1-11,2.59C207.63,232.5,202,228.32,202,217.53Z"/><path class="cls-1" d="M67.11,267.68H81.86v4.53H62.58V240.86h4.53Z"/><path class="cls-1" d="M101.05,263H89.8c-1.21,2.87-2.78,6.64-3.77,9.24H81.14l12.6-31.8h3.32l12.6,31.8h-4.84Zm-9.55-4.26h7.8l-3.85-11.08Z"/><path class="cls-1" d="M123.2,240.86a7.84,7.84,0,0,1,7.63,5.16c1.25,3.09.85,6.68-2.29,8.92a8.13,8.13,0,0,1,4.89,7.8c0,4.71-3.1,9.47-9.11,9.47H110.15V240.86Zm-8.56,12.47h8.47c4.94,0,5-8.17.09-8.17h-8.56Zm0,14.48h9.68c3.05,0,4.58-2.55,4.58-5s-1.53-5-4.58-5h-9.68Z"/><path class="cls-1" d="M137.55,248.15,136,247a9.57,9.57,0,0,0,2-5.56v-2.87h2.58v2.21A9.48,9.48,0,0,1,137.55,248.15Z"/><path class="cls-1" d="M160.45,248.93c-.63-2.82-3.68-4-6.41-4-2.11.05-4.44.76-5.7,2.38a4.13,4.13,0,0,0-.76,2.91c.23,3.23,3.77,3.63,7.13,4,4.31.54,9.64,1.66,10.85,6.68a10.74,10.74,0,0,1,.23,2.06c0,6.06-6,9.56-11.66,9.56-4.84,0-10.72-2.87-11.3-8.48l-.05-.85,4.58-.09,0,.67v-.18c.32,2.92,3.86,4.44,6.77,4.44,3.37,0,7-1.88,7-5.11a5.08,5.08,0,0,0-.13-1.08c-.54-2.37-3.77-2.78-6.91-3.09-4.88-.5-10.63-1.57-11.12-8.12v0a8.48,8.48,0,0,1,1.71-6c2.1-2.73,5.87-4.17,9.5-4.17,4.85,0,9.87,2.51,10.68,8.25Z"/></g></g></svg>