<svg width="16" height="14" viewBox="0 0 16 14" fill="none" xmlns="http://www.w3.org/2000/svg">
<path d="M11.205 1.24412C11.1525 1.09933 11.0566 0.974234 10.9305 0.88583C10.8043 0.797425 10.654 0.75 10.5 0.75C10.346 0.75 10.1957 0.797425 10.0696 0.88583C9.94343 0.974234 9.84757 1.09933 9.79502 1.24412L6.45302 10.4361L4.69302 6.21212C4.63613 6.07532 4.54 5.95844 4.41675 5.87622C4.29351 5.794 4.14867 5.75012 4.00052 5.75012C3.85237 5.75012 3.70753 5.794 3.58429 5.87622C3.46104 5.95844 3.36491 6.07532 3.30802 6.21212L0.808019 12.2121C0.737676 12.3945 0.741282 12.597 0.81807 12.7768C0.894859 12.9565 1.03876 13.0991 1.21915 13.1743C1.39953 13.2495 1.60215 13.2513 1.78385 13.1794C1.96556 13.1075 2.11201 12.9674 2.19202 12.7891L2.73002 11.5001H5.27202L5.80802 12.7861C5.84568 12.8785 5.90147 12.9624 5.97209 13.0329C6.04271 13.1034 6.12673 13.159 6.21919 13.1964C6.31166 13.2339 6.41069 13.2525 6.51045 13.251C6.61021 13.2496 6.70867 13.2282 6.80002 13.1881C6.89397 13.1475 6.97858 13.088 7.04859 13.0134C7.11861 12.9387 7.17253 12.8505 7.20702 12.7541L8.38902 9.50012H12.611L13.795 12.7561C13.8286 12.8487 13.8802 12.9338 13.9467 13.0064C14.0131 13.0791 14.0933 13.138 14.1825 13.1796C14.2718 13.2213 14.3683 13.2451 14.4667 13.2494C14.5651 13.2538 14.6634 13.2387 14.756 13.2051C14.8486 13.1715 14.9337 13.12 15.0063 13.0535C15.079 12.987 15.1379 12.9068 15.1795 12.8176C15.2212 12.7284 15.245 12.6318 15.2493 12.5334C15.2537 12.435 15.2386 12.3367 15.205 12.2441L11.205 1.24412V1.24412ZM10.5 3.69412L12.066 8.00012H8.93502L10.5 3.69512V3.69412ZM4.64602 10.0001H3.35402L4.00002 8.45012L4.64602 10.0001Z" fill="white"/>
</svg>
