<svg width="16" height="16" viewBox="0 0 16 16" fill="none" xmlns="http://www.w3.org/2000/svg">
<path d="M10 1.75C9.34776 1.75002 8.70427 1.90015 8.11937 2.18879C7.53447 2.47742 7.02385 2.8968 6.62706 3.41446C6.23026 3.93211 5.95793 4.53415 5.83116 5.17395C5.70438 5.81375 5.72657 6.47415 5.896 7.104L1.75 11.25V14.25H4.75V12.75H6.25V11.25H7.75L8.9 10.1C9.259 10.198 9.628 10.248 10 10.25C11.1272 10.25 12.2082 9.80223 13.0052 9.0052C13.8022 8.20817 14.25 7.12717 14.25 6C14.25 4.87283 13.8022 3.79183 13.0052 2.9948C12.2082 2.19777 11.1272 1.75 10 1.75V1.75Z" stroke="#8A8A8A" stroke-width="1.5" stroke-linecap="round" stroke-linejoin="round"/>
<path d="M10.75 5.75C11.0261 5.75 11.25 5.52614 11.25 5.25C11.25 4.97386 11.0261 4.75 10.75 4.75C10.4739 4.75 10.25 4.97386 10.25 5.25C10.25 5.52614 10.4739 5.75 10.75 5.75Z" fill="#8A8A8A" stroke="#8A8A8A" stroke-width="1.5" stroke-linecap="round" stroke-linejoin="round"/>
</svg>
