<svg width="35" height="35" viewBox="0 0 35 35" fill="none" xmlns="http://www.w3.org/2000/svg">
<path fill-rule="evenodd" clip-rule="evenodd" d="M28.756 26.25C25.1772 17.3127 21 14.9572 21 10.5V5.25H21.875C22.1071 5.25 22.3296 5.15781 22.4937 4.99372C22.6578 4.82962 22.75 4.60706 22.75 4.375V2.625C22.75 2.39294 22.6578 2.17038 22.4937 2.00628C22.3296 1.84219 22.1071 1.75 21.875 1.75H13.125C12.8929 1.75 12.6704 1.84219 12.5063 2.00628C12.3422 2.17038 12.25 2.39294 12.25 2.625V4.375C12.25 4.60706 12.3422 4.82962 12.5063 4.99372C12.6704 5.15781 12.8929 5.25 13.125 5.25H14V10.5C14 14.9572 9.82274 17.3127 6.24399 26.25C5.10474 29.0938 2.17874 33.25 17.5 33.25C32.8212 33.25 29.8952 29.0938 28.756 26.25ZM25.9262 29.3142C24.6977 29.6817 22.253 30.1 17.5 30.1C12.747 30.1 10.3022 29.6817 9.07374 29.3142C8.63799 29.1847 8.46824 28.679 8.62224 28.2152C9.00724 27.0427 9.73349 25.0163 11.0915 22.7535C14.4095 17.2253 17.8517 23.6232 20.7165 23.6232C23.5812 23.6232 22.7955 20.8915 23.9085 22.7535C24.9327 24.4763 25.761 26.3083 26.3777 28.2152C26.5317 28.679 26.362 29.183 25.9262 29.3142Z" fill="#22567A"/>
</svg>
