<svg width="16" height="16" viewBox="0 0 16 16" fill="none" xmlns="http://www.w3.org/2000/svg">
<path d="M13.7047 3.72969L12.0406 2.06719C11.8375 1.86406 11.5656 1.75 11.2781 1.75C10.9906 1.75 10.7188 1.8625 10.5156 2.06719L8.72344 3.85625C8.52031 4.05938 8.40625 4.33281 8.40625 4.62031C8.40625 4.90938 8.51875 5.17969 8.72344 5.38438L10.1234 6.78594C9.80451 7.52904 9.34626 8.20421 8.77344 8.775C8.2 9.35156 7.52969 9.80625 6.78594 10.1281L5.38594 8.72656C5.18281 8.52344 4.91094 8.40938 4.62344 8.40938C4.48163 8.40885 4.34114 8.43663 4.21021 8.4911C4.07928 8.54557 3.96054 8.62562 3.86094 8.72656L2.06719 10.5156C1.86406 10.7188 1.75 10.9922 1.75 11.2797C1.75 11.5688 1.8625 11.8391 2.06719 12.0437L3.72969 13.7063C4.07656 14.0531 4.55469 14.2516 5.04531 14.2516C5.14687 14.2516 5.24531 14.2438 5.34531 14.2266C7.41406 13.8859 9.46719 12.7844 11.125 11.1281C12.7812 9.46875 13.8813 7.41563 14.225 5.34531C14.3234 4.75781 14.1266 4.15312 13.7047 3.72969V3.72969ZM13.1172 5.15938C12.8125 7.00156 11.8219 8.83906 10.3297 10.3313C8.8375 11.8234 7.00156 12.8141 5.15938 13.1187C4.92813 13.1578 4.69062 13.0797 4.52187 12.9125L2.88906 11.2797L4.62031 9.54688L6.49219 11.4219L6.50625 11.4359L6.84375 11.3109C7.86707 10.9347 8.79635 10.3404 9.56717 9.56934C10.338 8.79825 10.9319 7.86877 11.3078 6.84531L11.4328 6.50781L9.54531 4.62187L11.2766 2.88906L12.9094 4.52187C13.0781 4.69062 13.1562 4.92813 13.1172 5.15938Z" fill="#8A8A8A"/>
</svg>
