<svg width="24" height="24" viewBox="0 0 24 24" fill="none" xmlns="http://www.w3.org/2000/svg">
<path d="M16.6 10.88L15.18 9.45996L10.94 13.71L8.82002 11.58L7.40002 13L10.94 16.54L16.6 10.88Z" fill="#8A8A8A"/>
<path d="M19 4H5C4.46957 4 3.96086 4.21071 3.58579 4.58579C3.21071 4.96086 3 5.46957 3 6V18C3 18.5304 3.21071 19.0391 3.58579 19.4142C3.96086 19.7893 4.46957 20 5 20H19C20.1 20 21 19.1 21 18V6C21 5.46957 20.7893 4.96086 20.4142 4.58579C20.0391 4.21071 19.5304 4 19 4V4ZM19 18H5V8H19V18Z" fill="#8A8A8A"/>
</svg>
